<?xml version="1.0" encoding="UTF-8" standalone="no"?>
<?xml-stylesheet href="doxygen.css" type="text/css"?>
<!DOCTYPE svg PUBLIC "-//W3C//DTD SVG 1.1//EN"
 "http://www.w3.org/Graphics/SVG/1.1/DTD/svg11.dtd">
<!-- Generated by graphviz version 2.43.0 (0)
 -->
<!-- Title: G Pages: 1 -->
<svg width="1464pt" height="883pt"
 viewBox="0.00 0.00 1464.00 883.00" xmlns="http://www.w3.org/2000/svg" xmlns:xlink="http://www.w3.org/1999/xlink">
<g id="graph0" class="graph" transform="scale(1 1) rotate(0) translate(4 879)">
<title>G</title>
<polygon fill="white" stroke="transparent" points="-4,4 -4,-879 1460,-879 1460,4 -4,4"/>
<!-- node19 -->
<g id="node1" class="node">
<title>node19</title>
<path fill="none" stroke="black" d="M553,-875C553,-875 185,-875 185,-875 179,-875 173,-869 173,-863 173,-863 173,-851 173,-851 173,-845 179,-839 185,-839 185,-839 553,-839 553,-839 559,-839 565,-845 565,-851 565,-851 565,-863 565,-863 565,-869 559,-875 553,-875"/>
<polygon fill="white" stroke="transparent" points="181,-849 181,-864 557,-864 557,-849 181,-849"/>
<text text-anchor="start" x="181" y="-852.8" font-family="Times,serif" font-size="14.00"> SamplingTDL:process( reset,clk,SampledTaps,SampledTaps_pipe) </text>
</g>
<!-- node1 -->
<g id="node2" class="node">
<title>node1</title>
<polygon fill="#c1b2ff" stroke="#c1b2ff" points="369,-802 259.74,-784 369,-766 478.26,-784 369,-802"/>
<text text-anchor="middle" x="369" y="-780.3" font-family="Times,serif" font-size="14.00"> if &#160;&#160;&#160;reset= &#39;1&#39; then</text>
</g>
<!-- node19&#45;&gt;node1 -->
<g id="edge1" class="edge">
<title>node19&#45;&gt;node1:n</title>
<path fill="none" stroke="green" d="M369,-838.98C369,-831.17 369,-821.56 369,-812.11"/>
<polygon fill="green" stroke="green" points="372.5,-812 369,-802 365.5,-812 372.5,-812"/>
</g>
<!-- node2 -->
<g id="node3" class="node">
<title>node2</title>
<polygon fill="lightcyan" stroke="transparent" points="7,-618 7,-654 217,-654 217,-618 7,-618"/>
<polygon fill="none" stroke="black" points="7,-618 7,-654 217,-654 217,-618 7,-618"/>
<text text-anchor="start" x="10" y="-639.8" font-family="Times,serif" font-size="14.00"> SampledTaps&lt;=( others =&gt; &#39;&#45;&#39;)</text>
<text text-anchor="start" x="10" y="-624.8" font-family="Times,serif" font-size="14.00">SampledTaps_pipe&lt;=( others =&gt; &#39;&#45;&#39;) </text>
</g>
<!-- node1&#45;&gt;node2 -->
<g id="edge2" class="edge">
<title>node1:s&#45;&gt;node2</title>
<path fill="none" stroke="red" d="M369,-766C369,-745.05 258.55,-696.13 182.47,-664.92"/>
<polygon fill="red" stroke="red" points="183.49,-661.55 172.91,-661.01 180.84,-668.03 183.49,-661.55"/>
<text text-anchor="middle" x="361.5" y="-736.8" font-family="Times,serif" font-size="14.00">yes</text>
</g>
<!-- node4 -->
<g id="node4" class="node">
<title>node4</title>
<polygon fill="#c1b2ff" stroke="#c1b2ff" points="661,-715 493.93,-697 661,-679 828.07,-697 661,-715"/>
<text text-anchor="middle" x="661" y="-693.3" font-family="Times,serif" font-size="14.00"> elsif &#160;&#160;&#160;rising_edge(clk &#160;) then</text>
</g>
<!-- node1&#45;&gt;node4 -->
<g id="edge3" class="edge">
<title>node1:s&#45;&gt;node4</title>
<path fill="none" stroke="black" d="M369,-766C369,-728.63 460.89,-711.78 541.57,-704.2"/>
<polygon fill="black" stroke="black" points="542.21,-707.66 551.85,-703.28 541.58,-700.69 542.21,-707.66"/>
<text text-anchor="middle" x="407" y="-736.8" font-family="Times,serif" font-size="14.00">no</text>
</g>
<!-- node12 -->
<g id="node8" class="node">
<title>node12</title>
<polygon fill="#c1b2ff" stroke="#c1b2ff" points="768,-332 538.42,-314 768,-296 997.58,-314 768,-332"/>
<text text-anchor="middle" x="768" y="-310.3" font-family="Times,serif" font-size="14.00"> if &#160;&#160;&#160;BUFFERING_STAGE= &#160;&#160;TRUE then</text>
</g>
<!-- node2&#45;&gt;node12 -->
<g id="edge4" class="edge">
<title>node2&#45;&gt;node12:n</title>
<path fill="none" stroke="green" d="M30.55,-610.71C23.7,-605.85 17.64,-600.01 13,-593 0.73,-574.47 0.25,-561.2 13,-543 142.97,-357.5 270.33,-415.5 492,-369 522.08,-362.69 750.52,-376.28 768,-351"/>
<path fill="none" stroke="green" d="M768,-350C770.19,-347.03 770.36,-344.67 769.9,-342.21"/>
<polygon fill="green" stroke="green" points="773.34,-341.53 768,-332.37 766.47,-342.85 773.34,-341.53"/>
</g>
<!-- node5 -->
<g id="node5" class="node">
<title>node5</title>
<polygon fill="lightcyan" stroke="transparent" points="29,-550 29,-586 1293,-586 1293,-550 29,-550"/>
<polygon fill="none" stroke="black" points="29,-550 29,-586 1293,-586 1293,-550 29,-550"/>
<text text-anchor="start" x="32" y="-571.8" font-family="Times,serif" font-size="14.00"> SampledTaps&lt;= &#160;&#160;Sample_AsyncTapsCarry( &#160;&#160;TYPE_TDL, &#160;&#160;NUM_TAP_TDL, &#160;&#160;OFFSET_TAP_TDL, &#160;&#160;BIT_SMP_TDL, &#160;&#160;BIT_SMP_PRE_TDL, &#160;&#160;NUM_TAP_PRE_TDL, &#160;&#160;AsyncTaps_preTDL, &#160;&#160;AsyncTaps_TDL)</text>
<text text-anchor="start" x="32" y="-556.8" font-family="Times,serif" font-size="14.00">Polarity&lt;= &#160;&#160;PolarityIn &#160;&#160;&#160;&#160;&#160;&#160;&#160;&#160;&#160;&#160;&#160;&#160;&#160;&#160;&#160;&#160;&#160;&#160;&#160;&#160;&#160;&#160;&#160;&#160;&#160;&#160;&#160;&#160;&#160;&#160;&#160;&#160;&#160;&#160;&#160;&#160;&#160;&#160;&#160;&#160;&#160;&#160;&#160;&#160;&#160;&#160;&#160;&#160;&#160;&#160;&#160;&#160;&#160;&#160;&#160;&#160;&#160;&#160;&#160;&#160;&#160;&#160;&#160;&#160;&#160;&#160;&#160;&#160;&#160;&#160;&#160;&#160;&#160;&#160;&#160;&#160;&#160;&#160;&#160;&#160;&#160;&#160;&#160;&#160;&#160;&#160;&#160;&#160;&#160;&#160;&#160;&#160;&#160;&#160;&#160;&#160;&#160;&#160;&#160;&#160;&#160;&#160;&#160;&#160;&#160;&#160;&#160;&#160;&#160;&#160;&#160;&#160;&#160;&#160;&#160;&#160;&#160;&#160;&#160;&#160;&#160;&#160;&#160;&#160;&#160;&#160;&#160;&#160;&#160;&#160;&#160;&#160;&#160;&#160;&#160;&#160;&#160;&#160;&#160;&#160;&#160;&#160;&#160;&#160;&#160;&#160;&#160;&#160;&#160;&#160;&#160;&#160;&#160;&#160;&#160;&#160;&#160;&#160;&#160;&#160;&#160;&#160;&#160;&#160;&#160;&#160;&#160;&#160;&#160;&#160;&#160;&#160;&#160;&#160;&#160;&#160;&#160;&#160;&#160;&#160;&#160;&#160;&#160;&#160;&#160;&#160;&#160;&#160;&#160;&#160;&#160;&#160;&#160;&#160;&#160;&#160;&#160;&#160;&#160;&#160;&#160;&#160;&#160;&#160;&#160;&#160;&#160;&#160;&#160;&#160;&#160;&#160;&#160;&#160;&#160;&#160;&#160;&#160;&#160;&#160;&#160;&#160;&#160;&#160;&#160;&#160;&#160;&#160;&#160;&#160;&#160;&#160;&#160;&#160;&#160;&#160;&#160;&#160;&#160;&#160;&#160;&#160;&#160;&#160;&#160;&#160;&#160;&#160;&#160;&#160;&#160;&#160;&#160;&#160;&#160;&#160;&#160;&#160;&#160;&#160;&#160;&#160;&#160;&#160;&#160;&#160;&#160;&#160;&#160;&#160;&#160;&#160;&#160;&#160;&#160;&#160;&#160;&#160;&#160;&#160;&#160;&#160;&#160;&#160;&#160;&#160;&#160;&#160;&#160;&#160;&#160;&#160;&#160;&#160;&#160;&#160;&#160;&#160;&#160;. </text>
</g>
<!-- node4&#45;&gt;node5 -->
<g id="edge5" class="edge">
<title>node4&#45;&gt;node5</title>
<path fill="none" stroke="red" d="M661,-678.87C661,-659.65 661,-627.95 661,-603.53"/>
<polygon fill="red" stroke="red" points="664.5,-603.23 661,-593.23 657.5,-603.23 664.5,-603.23"/>
<text text-anchor="middle" x="670.5" y="-632.3" font-family="Times,serif" font-size="14.00">yes</text>
</g>
<!-- node4&#45;&gt;node12 -->
<g id="edge6" class="edge">
<title>node4&#45;&gt;node12:n</title>
<path fill="none" stroke="black" d="M801.75,-694.15C972.38,-688.57 1245.12,-667.84 1309,-593 1323.43,-576.1 1321.82,-561.15 1309,-543 1290.6,-516.95 749.09,-376.68 768,-351"/>
<text text-anchor="middle" x="1218" y="-484.3" font-family="Times,serif" font-size="14.00">no</text>
</g>
<!-- node7 -->
<g id="node6" class="node">
<title>node7</title>
<polygon fill="#c1b2ff" stroke="#c1b2ff" points="661,-506 431.42,-488 661,-470 890.58,-488 661,-506"/>
<text text-anchor="middle" x="661" y="-484.3" font-family="Times,serif" font-size="14.00"> if &#160;&#160;&#160;BUFFERING_STAGE= &#160;&#160;TRUE then</text>
</g>
<!-- node5&#45;&gt;node7 -->
<g id="edge7" class="edge">
<title>node5&#45;&gt;node7:n</title>
<path fill="none" stroke="green" d="M661,-542.95C661,-534.8 661,-525.41 661,-516.22"/>
<polygon fill="green" stroke="green" points="664.5,-516 661,-506 657.5,-516 664.5,-516"/>
</g>
<!-- node8 -->
<g id="node7" class="node">
<title>node8</title>
<polygon fill="lightcyan" stroke="transparent" points="508,-376 508,-412 725,-412 725,-376 508,-376"/>
<polygon fill="none" stroke="black" points="508,-376 508,-412 725,-412 725,-376 508,-376"/>
<text text-anchor="start" x="511" y="-397.8" font-family="Times,serif" font-size="14.00"> SampledTaps_pipe&lt;= &#160;&#160;SampledTaps</text>
<text text-anchor="start" x="518.5" y="-382.8" font-family="Times,serif" font-size="14.00">Polarity_pipe&lt;= &#160;&#160;Polarity &#160;&#160;&#160;&#160;&#160;&#160;&#160;&#160;&#160;&#160;&#160;. </text>
</g>
<!-- node7&#45;&gt;node8 -->
<g id="edge8" class="edge">
<title>node7:s&#45;&gt;node8</title>
<path fill="none" stroke="red" d="M661,-470C661,-454.7 654.03,-439.83 645.58,-427.41"/>
<polygon fill="red" stroke="red" points="648.3,-425.21 639.55,-419.24 642.67,-429.37 648.3,-425.21"/>
<text text-anchor="middle" x="666.5" y="-440.8" font-family="Times,serif" font-size="14.00">yes</text>
</g>
<!-- node7&#45;&gt;node12 -->
<g id="edge9" class="edge">
<title>node7:s&#45;&gt;node12:n</title>
<path fill="none" stroke="black" d="M661,-470C661,-459.46 734.28,-427.13 741,-419 761.71,-393.93 749.6,-377.81 768,-351"/>
<text text-anchor="middle" x="765" y="-390.3" font-family="Times,serif" font-size="14.00">no</text>
</g>
<!-- node8&#45;&gt;node12 -->
<g id="edge10" class="edge">
<title>node8&#45;&gt;node12:n</title>
<path fill="none" stroke="green" d="M731.54,-371.22C748.76,-365.62 762.58,-358.9 768,-351"/>
</g>
<!-- node13 -->
<g id="node9" class="node">
<title>node13</title>
<polygon fill="lightcyan" stroke="transparent" points="338,-148 338,-184 1048,-184 1048,-148 338,-148"/>
<polygon fill="none" stroke="black" points="338,-148 338,-184 1048,-184 1048,-148 338,-148"/>
<text text-anchor="start" x="341" y="-169.8" font-family="Times,serif" font-size="14.00"> SampledTaps_TDL&lt;= &#160;&#160;SampledTaps_pipe( &#160;&#160;BIT_SMP_TDL+ &#160;&#160;BIT_SMP_PRE_TDL&#45; 1 downto &#160;&#160;&#160;BIT_SMP_PRE_TDL)</text>
<text text-anchor="start" x="341" y="-154.8" font-family="Times,serif" font-size="14.00">PolarityOut&lt;= &#160;&#160;Polarity_pipe &#160;&#160;&#160;&#160;&#160;&#160;&#160;&#160;&#160;&#160;&#160;&#160;&#160;&#160;&#160;&#160;&#160;&#160;&#160;&#160;&#160;&#160;&#160;&#160;&#160;&#160;&#160;&#160;&#160;&#160;&#160;&#160;&#160;&#160;&#160;&#160;&#160;&#160;&#160;&#160;&#160;&#160;&#160;&#160;&#160;&#160;&#160;&#160;&#160;&#160;&#160;&#160;&#160;&#160;&#160;&#160;&#160;&#160;&#160;&#160;&#160;&#160;&#160;&#160;&#160;&#160;&#160;&#160;&#160;&#160;&#160;&#160;&#160;&#160;&#160;&#160;&#160;&#160;&#160;&#160;&#160;&#160;&#160;&#160;&#160;&#160;&#160;&#160;&#160;&#160;&#160;&#160;&#160;&#160;&#160;&#160;&#160;&#160;&#160;&#160;&#160;&#160;&#160;&#160;&#160;&#160;&#160;&#160;&#160;&#160;&#160;&#160;&#160;&#160;&#160;&#160;&#160;&#160;&#160;&#160;&#160;&#160;&#160;&#160;&#160;&#160;&#160;&#160;&#160;&#160;&#160;&#160;&#160;&#160;&#160;&#160;&#160;&#160;&#160;&#160;&#160;. </text>
</g>
<!-- node12&#45;&gt;node13 -->
<g id="edge11" class="edge">
<title>node12:s&#45;&gt;node13</title>
<path fill="none" stroke="red" d="M768,-296C768,-285.59 758.84,-286.62 753,-278 736.13,-253.08 720.09,-222.94 708.84,-200.36"/>
<polygon fill="red" stroke="red" points="711.88,-198.61 704.33,-191.18 705.6,-201.7 711.88,-198.61"/>
<text text-anchor="middle" x="762.5" y="-266.8" font-family="Times,serif" font-size="14.00">yes</text>
</g>
<!-- node15 -->
<g id="node10" class="node">
<title>node15</title>
<polygon fill="#c1b2ff" stroke="#c1b2ff" points="1078,-245 827.98,-227 1078,-209 1328.02,-227 1078,-245"/>
<text text-anchor="middle" x="1078" y="-223.3" font-family="Times,serif" font-size="14.00"> elsif &#160;&#160;&#160;BUFFERING_STAGE= &#160;&#160;FALSE then</text>
</g>
<!-- node12&#45;&gt;node15 -->
<g id="edge12" class="edge">
<title>node12:s&#45;&gt;node15</title>
<path fill="none" stroke="black" d="M768,-296C768,-260.87 844.93,-243.86 922.14,-235.64"/>
<polygon fill="black" stroke="black" points="922.94,-239.08 932.53,-234.59 922.23,-232.12 922.94,-239.08"/>
<text text-anchor="middle" x="801" y="-266.8" font-family="Times,serif" font-size="14.00">no</text>
</g>
<!-- node20 -->
<g id="node12" class="node">
<title>node20</title>
<path fill="none" stroke="black" d="M1102,-36C1102,-36 1034,-36 1034,-36 1028,-36 1022,-30 1022,-24 1022,-24 1022,-12 1022,-12 1022,-6 1028,0 1034,0 1034,0 1102,0 1102,0 1108,0 1114,-6 1114,-12 1114,-12 1114,-24 1114,-24 1114,-30 1108,-36 1102,-36"/>
<polygon fill="white" stroke="transparent" points="1030,-10 1030,-25 1106,-25 1106,-10 1030,-10"/>
<text text-anchor="start" x="1030" y="-13.8" font-family="Times,serif" font-size="14.00"> end process &#160;</text>
</g>
<!-- node13&#45;&gt;node20 -->
<g id="edge13" class="edge">
<title>node13&#45;&gt;node20</title>
<path fill="none" stroke="green" d="M690.56,-140.61C689.93,-119.32 692.93,-89.35 712,-73 742.07,-47.22 1069.21,-94.59 1068,-55"/>
<path fill="none" stroke="green" d="M1068,-54C1067.84,-51.45 1067.74,-48.8 1067.67,-46.14"/>
<polygon fill="green" stroke="green" points="1071.17,-46.07 1067.58,-36.1 1064.17,-46.13 1071.17,-46.07"/>
</g>
<!-- node16 -->
<g id="node11" class="node">
<title>node16</title>
<polygon fill="lightcyan" stroke="transparent" points="728,-80 728,-116 1408,-116 1408,-80 728,-80"/>
<polygon fill="none" stroke="black" points="728,-80 728,-116 1408,-116 1408,-80 728,-80"/>
<text text-anchor="start" x="731" y="-101.8" font-family="Times,serif" font-size="14.00"> SampledTaps_TDL&lt;= &#160;&#160;SampledTaps( &#160;&#160;BIT_SMP_TDL+ &#160;&#160;BIT_SMP_PRE_TDL&#45; 1 downto &#160;&#160;&#160;BIT_SMP_PRE_TDL)</text>
<text text-anchor="start" x="731" y="-86.8" font-family="Times,serif" font-size="14.00">PolarityOut&lt;= &#160;&#160;Polarity &#160;&#160;&#160;&#160;&#160;&#160;&#160;&#160;&#160;&#160;&#160;&#160;&#160;&#160;&#160;&#160;&#160;&#160;&#160;&#160;&#160;&#160;&#160;&#160;&#160;&#160;&#160;&#160;&#160;&#160;&#160;&#160;&#160;&#160;&#160;&#160;&#160;&#160;&#160;&#160;&#160;&#160;&#160;&#160;&#160;&#160;&#160;&#160;&#160;&#160;&#160;&#160;&#160;&#160;&#160;&#160;&#160;&#160;&#160;&#160;&#160;&#160;&#160;&#160;&#160;&#160;&#160;&#160;&#160;&#160;&#160;&#160;&#160;&#160;&#160;&#160;&#160;&#160;&#160;&#160;&#160;&#160;&#160;&#160;&#160;&#160;&#160;&#160;&#160;&#160;&#160;&#160;&#160;&#160;&#160;&#160;&#160;&#160;&#160;&#160;&#160;&#160;&#160;&#160;&#160;&#160;&#160;&#160;&#160;&#160;&#160;&#160;&#160;&#160;&#160;&#160;&#160;&#160;&#160;&#160;&#160;&#160;&#160;&#160;&#160;&#160;&#160;&#160;&#160;&#160;&#160;&#160;&#160;&#160;&#160;&#160;&#160;&#160;&#160;&#160;&#160;. </text>
</g>
<!-- node15&#45;&gt;node16 -->
<g id="edge14" class="edge">
<title>node15&#45;&gt;node16</title>
<path fill="none" stroke="red" d="M1076.65,-208.87C1075.13,-189.56 1072.62,-157.66 1070.69,-133.2"/>
<polygon fill="red" stroke="red" points="1074.18,-132.92 1069.91,-123.23 1067.2,-133.47 1074.18,-132.92"/>
<text text-anchor="middle" x="1084.5" y="-162.3" font-family="Times,serif" font-size="14.00">yes</text>
</g>
<!-- node15&#45;&gt;node20 -->
<g id="edge15" class="edge">
<title>node15&#45;&gt;node20</title>
<path fill="none" stroke="black" d="M1174.79,-215.96C1303.29,-199.12 1505.06,-158.27 1424,-73 1396.71,-44.3 1070.41,-94.53 1068,-55"/>
<text text-anchor="middle" x="1449" y="-94.3" font-family="Times,serif" font-size="14.00">no</text>
</g>
<!-- node16&#45;&gt;node20 -->
<g id="edge16" class="edge">
<title>node16&#45;&gt;node20</title>
<path fill="none" stroke="green" d="M1068.25,-72.57C1068.24,-66.8 1068.17,-60.68 1068,-55"/>
</g>
</g>
</svg>
