<?xml version="1.0" encoding="UTF-8" standalone="no"?>
<?xml-stylesheet href="doxygen.css" type="text/css"?>
<!DOCTYPE svg PUBLIC "-//W3C//DTD SVG 1.1//EN"
 "http://www.w3.org/Graphics/SVG/1.1/DTD/svg11.dtd">
<!-- Generated by graphviz version 2.43.0 (0)
 -->
<!-- Title: G Pages: 1 -->
<svg width="1170pt" height="886pt"
 viewBox="0.00 0.00 1169.51 886.00" xmlns="http://www.w3.org/2000/svg" xmlns:xlink="http://www.w3.org/1999/xlink">
<g id="graph0" class="graph" transform="scale(1 1) rotate(0) translate(4 882)">
<title>G</title>
<polygon fill="white" stroke="transparent" points="-4,4 -4,-882 1165.51,-882 1165.51,4 -4,4"/>
<!-- node15 -->
<g id="node1" class="node">
<title>node15</title>
<path fill="none" stroke="black" d="M548,-878C548,-878 25,-878 25,-878 19,-878 13,-872 13,-866 13,-866 13,-854 13,-854 13,-848 19,-842 25,-842 25,-842 548,-842 548,-842 554,-842 560,-848 560,-854 560,-854 560,-866 560,-866 560,-872 554,-878 548,-878"/>
<polygon fill="white" stroke="transparent" points="21.5,-852 21.5,-867 552.5,-867 552.5,-852 21.5,-852"/>
<text text-anchor="start" x="21.5" y="-855.8" font-family="Times,serif" font-size="14.00"> ValidTDL:process( reset,clk,Valid_SampledTaps,Valid_SampledTaps_pipe,RiseValid,FallValid) </text>
</g>
<!-- node1 -->
<g id="node2" class="node">
<title>node1</title>
<polygon fill="lightcyan" stroke="transparent" points="7.5,-776 7.5,-797 566.5,-797 566.5,-776 7.5,-776"/>
<polygon fill="none" stroke="black" points="7.5,-776 7.5,-797 566.5,-797 566.5,-776 7.5,-776"/>
<text text-anchor="start" x="10.5" y="-782.8" font-family="Times,serif" font-size="14.00"> Valid_SampledTaps&lt;= &#160;&#160;Compute_ValidSampledTapsCarry( &#160;&#160;TYPE_TDL, &#160;&#160;RiseValid, &#160;&#160;FallValid) </text>
</g>
<!-- node15&#45;&gt;node1 -->
<g id="edge1" class="edge">
<title>node15&#45;&gt;node1</title>
<path fill="none" stroke="green" d="M286.5,-841.81C286.5,-833.79 286.5,-824.05 286.5,-815.07"/>
<polygon fill="green" stroke="green" points="290,-815.03 286.5,-805.03 283,-815.03 290,-815.03"/>
</g>
<!-- node2 -->
<g id="node3" class="node">
<title>node2</title>
<polygon fill="#c1b2ff" stroke="#c1b2ff" points="286.5,-732 177.24,-714 286.5,-696 395.76,-714 286.5,-732"/>
<text text-anchor="middle" x="286.5" y="-710.3" font-family="Times,serif" font-size="14.00"> if &#160;&#160;&#160;reset= &#39;1&#39; then</text>
</g>
<!-- node1&#45;&gt;node2 -->
<g id="edge2" class="edge">
<title>node1&#45;&gt;node2:n</title>
<path fill="none" stroke="green" d="M286.5,-768.98C286.5,-761.17 286.5,-751.56 286.5,-742.11"/>
<polygon fill="green" stroke="green" points="290,-742 286.5,-732 283,-742 290,-742"/>
</g>
<!-- node3 -->
<g id="node4" class="node">
<title>node3</title>
<polygon fill="lightcyan" stroke="transparent" points="141.5,-562 141.5,-583 328.5,-583 328.5,-562 141.5,-562"/>
<polygon fill="none" stroke="black" points="141.5,-562 141.5,-583 328.5,-583 328.5,-562 141.5,-562"/>
<text text-anchor="start" x="144.5" y="-568.8" font-family="Times,serif" font-size="14.00"> Valid_SampledTaps_TDL&lt;= &#39;0&#39; </text>
</g>
<!-- node2&#45;&gt;node3 -->
<g id="edge3" class="edge">
<title>node2:s&#45;&gt;node3</title>
<path fill="none" stroke="red" d="M286.5,-696C286.5,-687.06 281.21,-686.14 277.5,-678 265.6,-651.91 253.21,-621.56 244.81,-600.4"/>
<polygon fill="red" stroke="red" points="248.06,-599.11 241.13,-591.09 241.55,-601.68 248.06,-599.11"/>
<text text-anchor="middle" x="287" y="-666.8" font-family="Times,serif" font-size="14.00">yes</text>
</g>
<!-- node4 -->
<g id="node5" class="node">
<title>node4</title>
<polygon fill="#c1b2ff" stroke="#c1b2ff" points="476.5,-645 309.43,-627 476.5,-609 643.57,-627 476.5,-645"/>
<text text-anchor="middle" x="476.5" y="-623.3" font-family="Times,serif" font-size="14.00"> elsif &#160;&#160;&#160;rising_edge(clk &#160;) then</text>
</g>
<!-- node2&#45;&gt;node4 -->
<g id="edge4" class="edge">
<title>node2:s&#45;&gt;node4</title>
<path fill="none" stroke="black" d="M286.5,-696C286.5,-670.07 350.03,-651.39 403.62,-640.25"/>
<polygon fill="black" stroke="black" points="404.39,-643.66 413.5,-638.25 403,-636.8 404.39,-643.66"/>
<text text-anchor="middle" x="330.5" y="-666.8" font-family="Times,serif" font-size="14.00">no</text>
</g>
<!-- node10 -->
<g id="node9" class="node">
<title>node10</title>
<polygon fill="#c1b2ff" stroke="#c1b2ff" points="654.5,-304 424.92,-286 654.5,-268 884.08,-286 654.5,-304"/>
<text text-anchor="middle" x="654.5" y="-282.3" font-family="Times,serif" font-size="14.00"> if &#160;&#160;&#160;BUFFERING_STAGE= &#160;&#160;TRUE then</text>
</g>
<!-- node3&#45;&gt;node10 -->
<g id="edge5" class="edge">
<title>node3&#45;&gt;node10:n</title>
<path fill="none" stroke="green" d="M231.48,-554.97C227.32,-527.37 221.98,-471.58 237.5,-428 253.96,-381.77 261.96,-363.64 305.5,-341 339.95,-323.09 630.94,-353.87 654.5,-323"/>
<path fill="none" stroke="green" d="M654.5,-322C656.73,-319.06 656.91,-316.71 656.44,-314.23"/>
<polygon fill="green" stroke="green" points="659.87,-313.51 654.5,-304.37 653,-314.86 659.87,-313.51"/>
</g>
<!-- node5 -->
<g id="node6" class="node">
<title>node5</title>
<polygon fill="lightcyan" stroke="transparent" points="404.5,-508 404.5,-529 548.5,-529 548.5,-508 404.5,-508"/>
<polygon fill="none" stroke="black" points="404.5,-508 404.5,-529 548.5,-529 548.5,-508 404.5,-508"/>
<text text-anchor="start" x="407.5" y="-514.8" font-family="Times,serif" font-size="14.00"> FallValid&lt;= &#160;&#160;RiseValid </text>
</g>
<!-- node4&#45;&gt;node5 -->
<g id="edge6" class="edge">
<title>node4&#45;&gt;node5</title>
<path fill="none" stroke="red" d="M476.5,-608.97C476.5,-592.38 476.5,-566.88 476.5,-547.43"/>
<polygon fill="red" stroke="red" points="480,-547.34 476.5,-537.34 473,-547.34 480,-547.34"/>
<text text-anchor="middle" x="486" y="-569.3" font-family="Times,serif" font-size="14.00">yes</text>
</g>
<!-- node4&#45;&gt;node10 -->
<g id="edge7" class="edge">
<title>node4&#45;&gt;node10:n</title>
<path fill="none" stroke="black" d="M515.08,-613.07C571.12,-591.95 673,-544.16 715.5,-464 723,-449.86 719.66,-443.45 715.5,-428 714.62,-424.74 652.46,-325.68 654.5,-323"/>
<text text-anchor="middle" x="726.5" y="-442.3" font-family="Times,serif" font-size="14.00">no</text>
</g>
<!-- node6 -->
<g id="node7" class="node">
<title>node6</title>
<polygon fill="#c1b2ff" stroke="#c1b2ff" points="476.5,-464 246.92,-446 476.5,-428 706.08,-446 476.5,-464"/>
<text text-anchor="middle" x="476.5" y="-442.3" font-family="Times,serif" font-size="14.00"> if &#160;&#160;&#160;BUFFERING_STAGE= &#160;&#160;TRUE then</text>
</g>
<!-- node5&#45;&gt;node6 -->
<g id="edge8" class="edge">
<title>node5&#45;&gt;node6:n</title>
<path fill="none" stroke="green" d="M476.5,-500.98C476.5,-493.17 476.5,-483.56 476.5,-474.11"/>
<polygon fill="green" stroke="green" points="480,-474 476.5,-464 473,-474 480,-474"/>
</g>
<!-- node7 -->
<g id="node8" class="node">
<title>node7</title>
<polygon fill="lightcyan" stroke="transparent" points="322.5,-348 322.5,-369 611.5,-369 611.5,-348 322.5,-348"/>
<polygon fill="none" stroke="black" points="322.5,-348 322.5,-369 611.5,-369 611.5,-348 322.5,-348"/>
<text text-anchor="start" x="325.5" y="-354.8" font-family="Times,serif" font-size="14.00"> Valid_SampledTaps_pipe&lt;= &#160;&#160;Valid_SampledTaps </text>
</g>
<!-- node6&#45;&gt;node7 -->
<g id="edge9" class="edge">
<title>node6:s&#45;&gt;node7</title>
<path fill="none" stroke="red" d="M476.5,-428C476.5,-414.53 474.55,-399.71 472.38,-387.35"/>
<polygon fill="red" stroke="red" points="475.76,-386.4 470.45,-377.23 468.88,-387.7 475.76,-386.4"/>
<text text-anchor="middle" x="484" y="-398.8" font-family="Times,serif" font-size="14.00">yes</text>
</g>
<!-- node6&#45;&gt;node10 -->
<g id="edge10" class="edge">
<title>node6:s&#45;&gt;node10:n</title>
<path fill="none" stroke="black" d="M476.5,-428C476.5,-410.29 614.14,-388.63 627.5,-377 647.74,-359.38 638.27,-344.37 654.5,-323"/>
<text text-anchor="middle" x="651.5" y="-355.3" font-family="Times,serif" font-size="14.00">no</text>
</g>
<!-- node7&#45;&gt;node10 -->
<g id="edge11" class="edge">
<title>node7&#45;&gt;node10:n</title>
<path fill="none" stroke="green" d="M618.19,-341.7C635.17,-336.97 648.53,-330.87 654.5,-323"/>
</g>
<!-- node11 -->
<g id="node10" class="node">
<title>node11</title>
<polygon fill="lightcyan" stroke="transparent" points="472.5,-134 472.5,-155 794.5,-155 794.5,-134 472.5,-134"/>
<polygon fill="none" stroke="black" points="472.5,-134 472.5,-155 794.5,-155 794.5,-134 472.5,-134"/>
<text text-anchor="start" x="475.5" y="-140.8" font-family="Times,serif" font-size="14.00"> Valid_SampledTaps_TDL&lt;= &#160;&#160;Valid_SampledTaps_pipe </text>
</g>
<!-- node10&#45;&gt;node11 -->
<g id="edge12" class="edge">
<title>node10:s&#45;&gt;node11</title>
<path fill="none" stroke="red" d="M654.5,-268C654.5,-258.13 644.89,-259.27 641.5,-250 632.39,-225.13 631.08,-194.72 631.63,-173.23"/>
<polygon fill="red" stroke="red" points="635.13,-173.3 632.04,-163.17 628.13,-173.02 635.13,-173.3"/>
<text text-anchor="middle" x="651" y="-238.8" font-family="Times,serif" font-size="14.00">yes</text>
</g>
<!-- node12 -->
<g id="node11" class="node">
<title>node12</title>
<polygon fill="#c1b2ff" stroke="#c1b2ff" points="911.5,-217 661.48,-199 911.5,-181 1161.52,-199 911.5,-217"/>
<text text-anchor="middle" x="911.5" y="-195.3" font-family="Times,serif" font-size="14.00"> elsif &#160;&#160;&#160;BUFFERING_STAGE= &#160;&#160;FALSE then</text>
</g>
<!-- node10&#45;&gt;node12 -->
<g id="edge13" class="edge">
<title>node10:s&#45;&gt;node12</title>
<path fill="none" stroke="black" d="M654.5,-268C654.5,-237.11 724.79,-219.93 791.84,-210.57"/>
<polygon fill="black" stroke="black" points="792.69,-213.99 802.14,-209.19 791.76,-207.05 792.69,-213.99"/>
<text text-anchor="middle" x="692.5" y="-238.8" font-family="Times,serif" font-size="14.00">no</text>
</g>
<!-- node16 -->
<g id="node13" class="node">
<title>node16</title>
<path fill="none" stroke="black" d="M848.5,-36C848.5,-36 780.5,-36 780.5,-36 774.5,-36 768.5,-30 768.5,-24 768.5,-24 768.5,-12 768.5,-12 768.5,-6 774.5,0 780.5,0 780.5,0 848.5,0 848.5,0 854.5,0 860.5,-6 860.5,-12 860.5,-12 860.5,-24 860.5,-24 860.5,-30 854.5,-36 848.5,-36"/>
<polygon fill="white" stroke="transparent" points="776.5,-10 776.5,-25 852.5,-25 852.5,-10 776.5,-10"/>
<text text-anchor="start" x="776.5" y="-13.8" font-family="Times,serif" font-size="14.00"> end process &#160;</text>
</g>
<!-- node11&#45;&gt;node16 -->
<g id="edge14" class="edge">
<title>node11&#45;&gt;node16</title>
<path fill="none" stroke="green" d="M632.99,-126.84C633.51,-110.41 637.11,-86.22 652.5,-73 679.97,-49.39 815.82,-91.2 814.5,-55"/>
<path fill="none" stroke="green" d="M814.5,-54C814.29,-51.46 814.15,-48.81 814.06,-46.15"/>
<polygon fill="green" stroke="green" points="817.56,-46.07 813.94,-36.11 810.56,-46.15 817.56,-46.07"/>
</g>
<!-- node13 -->
<g id="node12" class="node">
<title>node13</title>
<polygon fill="lightcyan" stroke="transparent" points="668.5,-80 668.5,-101 960.5,-101 960.5,-80 668.5,-80"/>
<polygon fill="none" stroke="black" points="668.5,-80 668.5,-101 960.5,-101 960.5,-80 668.5,-80"/>
<text text-anchor="start" x="671.5" y="-86.8" font-family="Times,serif" font-size="14.00"> Valid_SampledTaps_TDL&lt;= &#160;&#160;Valid_SampledTaps </text>
</g>
<!-- node12&#45;&gt;node13 -->
<g id="edge15" class="edge">
<title>node12&#45;&gt;node13</title>
<path fill="none" stroke="red" d="M896.77,-181.9C880.95,-164.62 855.63,-136.95 837.25,-116.86"/>
<polygon fill="red" stroke="red" points="839.67,-114.32 830.34,-109.31 834.51,-119.05 839.67,-114.32"/>
<text text-anchor="middle" x="886" y="-141.3" font-family="Times,serif" font-size="14.00">yes</text>
</g>
<!-- node12&#45;&gt;node16 -->
<g id="edge16" class="edge">
<title>node12&#45;&gt;node16</title>
<path fill="none" stroke="black" d="M930.69,-182.27C959.29,-156.98 1006.68,-106.72 976.5,-73 952.34,-46.01 817.45,-91.1 814.5,-55"/>
<text text-anchor="middle" x="992.5" y="-87.3" font-family="Times,serif" font-size="14.00">no</text>
</g>
<!-- node13&#45;&gt;node16 -->
<g id="edge17" class="edge">
<title>node13&#45;&gt;node16</title>
<path fill="none" stroke="green" d="M814.75,-72.91C814.77,-67.21 814.71,-60.83 814.5,-55"/>
</g>
</g>
</svg>
